<svg id="Capa_1" enable-background="new 0 0 87.248 87.248" height="512" viewBox="0 0 87.248 87.248" width="512" xmlns="http://www.w3.org/2000/svg"><g><g><path d="m76.306 34.261c-.4-.3-.9-.6-1.3-.9 2.2-6.5 1.8-14.5.7-21.2-.8-4.9-4.2-10.8-9.4-12-3.6-.8-6.9 1.5-9.1 4.4-3.5-5.5-13.3-6.2-17.4-.5 0 .1-.1.1-.1.2-1.4-1.5-3.5-2.6-5.2-3.2-3-1.1-5.6-.7-8.4.6-3 1.4-4.4 3.5-5 6.1-4.3-2.9-11-3-14.4 1-3.2 3.8-3.6 10-3.7 14.8-.1 5.5 0 11.4 1.1 16.9.6 3 2.1 6.4 4.4 8.8.1 6.4.6 13 2.8 19.1 2.3 6.3 6.8 11 12.8 14.2 11.3 6 26.4 6.1 38.1 1.1 12.5-5.4 23-19.1 22-33.1-.4-6.4-2.8-12.4-7.9-16.3zm-17.3-19.6c.3-2.9 2.6-11.8 7.2-9.4 4.1 2.1 5 7.4 5.3 11.5.4 5 .2 9.8-.2 14.8-3.8-1.5-8-1.9-12-1.6-.1-5.2-.8-10.2-.3-15.3zm-17.1 1.8c.1-2.6 0-5.4.8-7.9.9-2.7 2.8-4.1 5.6-4.1 3.3 0 5.1 1.7 6.7 4.2-2.6 6.9-1.4 14.4-1.5 21.6 0 .3 0 .5.1.7-3.9 1.3-8.1 3.7-10 7.1-.7-.9-1.2-1.8-1.4-3.1-.4-3.1-.4-6.4-.4-9.5-.2-3 0-6 .1-9zm-16.6 7.4c0-4.5 0-9 .4-13.5.3-2.7 1.9-4.2 4.6-4.8 2.8-.6 5.4 1.3 7.6 2.9-.4 1.5-.6 3-.7 4.5-.3 3.8-.5 7.7-.6 11.5-.1 2.8-.1 5.6.1 8.5 0 .1 0 .1-.1.2-.5 2.8-1.6 7.2-4.7 8.1-2.4.6-4.9-.5-5.6-2.5-1.6-4.5-1-10.3-1-14.9zm-12.9 22.2c-3.6-2.6-3.9-8.4-4.2-12.4-.4-5.2-1.1-11.3.2-16.4.4-1.6 1.1-4 2.3-5.2 2.6-2.6 7.1-.7 9.6 1.3 0 .4 0 .9-.1 1.3-.3 6.1-.5 12.3-.1 18.4.1 2.1.7 6.3.7 6.3.6 4.1-4.1 10.5-8.4 6.7zm55 28.6c-9.4 7.4-22.5 8.6-33.8 5.5-6.6-1.9-13.2-5.7-16.2-12.1-2.3-5-2.9-10.6-3-16 4.6.2 8.1-3.1 10.1-7 .6.5 1.3.9 2.1 1.2 3 1.2 6.7 1 9.5-.8 1.4-.9 2.5-2.3 3.4-3.9.6.7 1.3 1.4 2 2 .4.3.7.5 1.1.6 0 .1 0 .2.1.3.9 3 3.7 4.8 6.6 5.4 1.5.3 3 .3 4.5 0 .7-.1 2.7-.9 4.2-1.2-.6.7-1.5 1.4-1.8 1.8-.8 1-1.6 2.1-2.4 3.2-2 2.8-3.5 5.9-4.8 9.1-.8 1.9 2.3 3.1 3.3 1.4 1.6-2.8 3.3-5.6 5.3-8.1 1.6-2 3.6-3.8 5.1-5.9 1.2-1.6 1.5-3.8-.3-5.2-2-1.6-5-.9-7.3-.4s-7.2 1.5-7.4-2.1c-.2-3.8 5.5-6.1 8.3-6.8 6.1-1.5 13.9-.8 18.6 3.8 10.3 10.1 2.4 27.6-7.2 35.2z"/></g></g></svg>